<?xml version="1.0" encoding="UTF-8" standalone="no"?>
<!DOCTYPE svg PUBLIC "-//W3C//DTD SVG 1.1//EN"
 "http://www.w3.org/Graphics/SVG/1.1/DTD/svg11.dtd">
<!-- Generated by graphviz version 2.43.0 (0)
 -->
<!-- Title: G Pages: 1 -->
<svg width="476pt" height="188pt"
 viewBox="0.00 0.00 475.86 188.00" xmlns="http://www.w3.org/2000/svg" xmlns:xlink="http://www.w3.org/1999/xlink">
<g id="graph0" class="graph" transform="scale(1 1) rotate(0) translate(4 184)">
<title>G</title>
<polygon fill="white" stroke="transparent" points="-4,4 -4,-184 471.86,-184 471.86,4 -4,4"/>
<!-- :app -->
<g id="node1" class="node">
<title>:app</title>
<ellipse fill="none" stroke="black" cx="217.47" cy="-162" rx="30.59" ry="18"/>
<text text-anchor="middle" x="217.47" y="-158.3" font-family="Times,serif" font-size="14.00">:app</text>
</g>
<!-- :core:domain -->
<g id="node2" class="node">
<title>:core:domain</title>
<ellipse fill="none" stroke="black" cx="72.47" cy="-18" rx="70.69" ry="18"/>
<text text-anchor="middle" x="72.47" y="-14.3" font-family="Times,serif" font-size="14.00">:core:domain</text>
</g>
<!-- :app&#45;&gt;:core:domain -->
<g id="edge1" class="edge">
<title>:app&#45;&gt;:core:domain</title>
<path fill="none" stroke="black" d="M187.44,-157.94C134.63,-151.87 28.59,-136.37 6.47,-108 -3.37,-95.38 -0.45,-86.43 6.47,-72 12.54,-59.33 23.29,-48.73 34.37,-40.42"/>
<polygon fill="black" stroke="black" points="36.63,-43.11 42.83,-34.52 32.63,-37.37 36.63,-43.11"/>
</g>
<!-- :core:data -->
<g id="node3" class="node">
<title>:core:data</title>
<ellipse fill="none" stroke="black" cx="72.47" cy="-90" rx="57.39" ry="18"/>
<text text-anchor="middle" x="72.47" y="-86.3" font-family="Times,serif" font-size="14.00">:core:data</text>
</g>
<!-- :app&#45;&gt;:core:data -->
<g id="edge2" class="edge">
<title>:app&#45;&gt;:core:data</title>
<path fill="none" stroke="black" d="M194.49,-149.91C172.2,-139.15 137.96,-122.62 111.41,-109.8"/>
<polygon fill="black" stroke="black" points="112.9,-106.63 102.37,-105.44 109.86,-112.94 112.9,-106.63"/>
</g>
<!-- :core:designsystem -->
<g id="node4" class="node">
<title>:core:designsystem</title>
<ellipse fill="none" stroke="black" cx="288.47" cy="-18" rx="100.98" ry="18"/>
<text text-anchor="middle" x="288.47" y="-14.3" font-family="Times,serif" font-size="14.00">:core:designsystem</text>
</g>
<!-- :app&#45;&gt;:core:designsystem -->
<g id="edge3" class="edge">
<title>:app&#45;&gt;:core:designsystem</title>
<path fill="none" stroke="black" d="M242.79,-151.67C261.35,-143.33 285.2,-129.13 296.47,-108 306.63,-88.94 303.37,-64.29 298.29,-45.77"/>
<polygon fill="black" stroke="black" points="301.63,-44.71 295.35,-36.18 294.93,-46.77 301.63,-44.71"/>
</g>
<!-- :core:service -->
<g id="node5" class="node">
<title>:core:service</title>
<ellipse fill="none" stroke="black" cx="217.47" cy="-90" rx="69.59" ry="18"/>
<text text-anchor="middle" x="217.47" y="-86.3" font-family="Times,serif" font-size="14.00">:core:service</text>
</g>
<!-- :app&#45;&gt;:core:service -->
<g id="edge4" class="edge">
<title>:app&#45;&gt;:core:service</title>
<path fill="none" stroke="black" d="M217.47,-143.7C217.47,-135.98 217.47,-126.71 217.47,-118.11"/>
<polygon fill="black" stroke="black" points="220.97,-118.1 217.47,-108.1 213.97,-118.1 220.97,-118.1"/>
</g>
<!-- :navigation -->
<g id="node6" class="node">
<title>:navigation</title>
<ellipse fill="none" stroke="black" cx="405.47" cy="-90" rx="62.29" ry="18"/>
<text text-anchor="middle" x="405.47" y="-86.3" font-family="Times,serif" font-size="14.00">:navigation</text>
</g>
<!-- :app&#45;&gt;:navigation -->
<g id="edge5" class="edge">
<title>:app&#45;&gt;:navigation</title>
<path fill="none" stroke="red" stroke-width="2" d="M242.82,-151.56C272.63,-140.46 322.69,-121.82 359.42,-108.15"/>
<polygon fill="red" stroke="red" stroke-width="2" points="360.77,-111.38 368.92,-104.61 358.33,-104.82 360.77,-111.38"/>
</g>
<!-- :core:data&#45;&gt;:core:domain -->
<g id="edge6" class="edge">
<title>:core:data&#45;&gt;:core:domain</title>
<path fill="none" stroke="black" d="M72.47,-71.7C72.47,-63.98 72.47,-54.71 72.47,-46.11"/>
<polygon fill="black" stroke="black" points="75.97,-46.1 72.47,-36.1 68.97,-46.1 75.97,-46.1"/>
</g>
<!-- :core:service&#45;&gt;:core:domain -->
<g id="edge8" class="edge">
<title>:core:service&#45;&gt;:core:domain</title>
<path fill="none" stroke="black" d="M186,-73.81C164.63,-63.49 136.15,-49.75 113.07,-38.6"/>
<polygon fill="black" stroke="black" points="114.4,-35.35 103.87,-34.16 111.35,-41.66 114.4,-35.35"/>
</g>
<!-- :core:service&#45;&gt;:core:designsystem -->
<g id="edge7" class="edge">
<title>:core:service&#45;&gt;:core:designsystem</title>
<path fill="none" stroke="black" d="M234.29,-72.41C243.18,-63.65 254.25,-52.73 264.07,-43.06"/>
<polygon fill="black" stroke="black" points="266.6,-45.47 271.27,-35.96 261.69,-40.48 266.6,-45.47"/>
</g>
</g>
</svg>
