<?xml version="1.0" encoding="UTF-8" standalone="no"?>
<!DOCTYPE svg PUBLIC "-//W3C//DTD SVG 1.1//EN"
 "http://www.w3.org/Graphics/SVG/1.1/DTD/svg11.dtd">
<!-- Generated by graphviz version 14.1.5 (20260411.2331)
 -->
<!-- Title: G Pages: 1 -->
<svg width="311pt" height="260pt"
 viewBox="0.00 0.00 311.00 260.00" xmlns="http://www.w3.org/2000/svg" xmlns:xlink="http://www.w3.org/1999/xlink">
<g id="graph0" class="graph" transform="scale(1 1) rotate(0) translate(4 256)">
<title>G</title>
<polygon fill="white" stroke="none" points="-4,4 -4,-256 306.61,-256 306.61,4 -4,4"/>
<!-- :app -->
<g id="node1" class="node">
<title>:app</title>
<ellipse fill="none" stroke="black" cx="79.23" cy="-234" rx="27" ry="18"/>
<text xml:space="preserve" text-anchor="middle" x="79.23" y="-228.95" font-family="Times,serif" font-size="14.00">:app</text>
</g>
<!-- :core:domain -->
<g id="node2" class="node">
<title>:core:domain</title>
<ellipse fill="none" stroke="black" cx="60.23" cy="-18" rx="60.05" ry="18"/>
<text xml:space="preserve" text-anchor="middle" x="60.23" y="-12.95" font-family="Times,serif" font-size="14.00">:core:domain</text>
</g>
<!-- :app&#45;&gt;:core:domain -->
<g id="edge1" class="edge">
<title>:app&#45;&gt;:core:domain</title>
<path fill="none" stroke="black" d="M66.24,-217.73C48.17,-195.38 16.32,-151.66 4.23,-108 -0.04,-92.58 -2.1,-86.7 4.23,-72 9.16,-60.54 17.93,-50.4 27.08,-42.13"/>
<polygon fill="black" stroke="black" points="29.27,-44.87 34.7,-35.78 24.78,-39.5 29.27,-44.87"/>
</g>
<!-- :core:data -->
<g id="node3" class="node">
<title>:core:data</title>
<ellipse fill="none" stroke="black" cx="60.23" cy="-90" rx="47.26" ry="18"/>
<text xml:space="preserve" text-anchor="middle" x="60.23" y="-84.95" font-family="Times,serif" font-size="14.00">:core:data</text>
</g>
<!-- :app&#45;&gt;:core:data -->
<g id="edge2" class="edge">
<title>:app&#45;&gt;:core:data</title>
<path fill="none" stroke="black" d="M69.77,-216.92C64.34,-206.72 58.04,-193.03 55.23,-180 50.93,-160.09 52.38,-137.12 54.79,-119.51"/>
<polygon fill="black" stroke="black" points="58.23,-120.19 56.33,-109.77 51.31,-119.1 58.23,-120.19"/>
</g>
<!-- :core:service -->
<g id="node4" class="node">
<title>:core:service</title>
<ellipse fill="none" stroke="black" cx="122.23" cy="-162" rx="58" ry="18"/>
<text xml:space="preserve" text-anchor="middle" x="122.23" y="-156.95" font-family="Times,serif" font-size="14.00">:core:service</text>
</g>
<!-- :app&#45;&gt;:core:service -->
<g id="edge3" class="edge">
<title>:app&#45;&gt;:core:service</title>
<path fill="none" stroke="red" stroke-width="2" d="M89.2,-216.76C94.11,-208.78 100.15,-198.95 105.71,-189.89"/>
<polygon fill="red" stroke="red" stroke-width="2" points="107.88,-193.06 110.13,-182.7 101.91,-189.39 107.88,-193.06"/>
</g>
<!-- :navigation -->
<g id="node5" class="node">
<title>:navigation</title>
<ellipse fill="none" stroke="black" cx="250.23" cy="-162" rx="52.38" ry="18"/>
<text xml:space="preserve" text-anchor="middle" x="250.23" y="-156.95" font-family="Times,serif" font-size="14.00">:navigation</text>
</g>
<!-- :app&#45;&gt;:navigation -->
<g id="edge4" class="edge">
<title>:app&#45;&gt;:navigation</title>
<path fill="none" stroke="black" d="M101.94,-223.7C128.66,-212.76 173.63,-194.36 207.05,-180.67"/>
<polygon fill="black" stroke="black" points="208.13,-184.01 216.06,-176.99 205.48,-177.54 208.13,-184.01"/>
</g>
<!-- :core:data&#45;&gt;:core:domain -->
<g id="edge5" class="edge">
<title>:core:data&#45;&gt;:core:domain</title>
<path fill="none" stroke="red" stroke-width="2" d="M60.23,-71.7C60.23,-64.41 60.23,-55.73 60.23,-47.54"/>
<polygon fill="red" stroke="red" stroke-width="2" points="63.73,-49.13 60.23,-39.13 56.73,-49.13 63.73,-49.13"/>
</g>
<!-- :core:service&#45;&gt;:core:domain -->
<g id="edge6" class="edge">
<title>:core:service&#45;&gt;:core:domain</title>
<path fill="none" stroke="black" d="M124.66,-143.68C126.47,-125.04 127.05,-94.98 116.23,-72 110.87,-60.62 101.9,-50.45 92.69,-42.14"/>
<polygon fill="black" stroke="black" points="94.97,-39.49 85.06,-35.74 90.47,-44.85 94.97,-39.49"/>
</g>
<!-- :core:service&#45;&gt;:core:data -->
<g id="edge7" class="edge">
<title>:core:service&#45;&gt;:core:data</title>
<path fill="none" stroke="red" stroke-width="2" d="M107.54,-144.41C100.05,-135.95 90.78,-125.49 82.44,-116.08"/>
<polygon fill="red" stroke="red" stroke-width="2" points="86.08,-114.9 76.83,-109.74 80.84,-119.54 86.08,-114.9"/>
</g>
</g>
</svg>
