<?xml version="1.0" encoding="UTF-8" standalone="no"?>
<!DOCTYPE svg PUBLIC "-//W3C//DTD SVG 1.1//EN"
 "http://www.w3.org/Graphics/SVG/1.1/DTD/svg11.dtd">
<!-- Generated by graphviz version 2.43.0 (0)
 -->
<!-- Title: G Pages: 1 -->
<svg width="359pt" height="260pt"
 viewBox="0.00 0.00 359.24 260.00" xmlns="http://www.w3.org/2000/svg" xmlns:xlink="http://www.w3.org/1999/xlink">
<g id="graph0" class="graph" transform="scale(1 1) rotate(0) translate(4 256)">
<title>G</title>
<polygon fill="white" stroke="transparent" points="-4,4 -4,-256 355.24,-256 355.24,4 -4,4"/>
<!-- :app -->
<g id="node1" class="node">
<title>:app</title>
<ellipse fill="none" stroke="black" cx="89.84" cy="-234" rx="30.59" ry="18"/>
<text text-anchor="middle" x="89.84" y="-230.3" font-family="Times,serif" font-size="14.00">:app</text>
</g>
<!-- :core:domain -->
<g id="node2" class="node">
<title>:core:domain</title>
<ellipse fill="none" stroke="black" cx="70.84" cy="-18" rx="70.69" ry="18"/>
<text text-anchor="middle" x="70.84" y="-14.3" font-family="Times,serif" font-size="14.00">:core:domain</text>
</g>
<!-- :app&#45;&gt;:core:domain -->
<g id="edge1" class="edge">
<title>:app&#45;&gt;:core:domain</title>
<path fill="none" stroke="black" d="M75.15,-218.06C54.71,-196.12 18.66,-152.9 4.84,-108 0.14,-92.71 -2.07,-86.43 4.84,-72 10.92,-59.33 21.67,-48.73 32.74,-40.42"/>
<polygon fill="black" stroke="black" points="35.01,-43.11 41.21,-34.52 31,-37.37 35.01,-43.11"/>
</g>
<!-- :core:data -->
<g id="node3" class="node">
<title>:core:data</title>
<ellipse fill="none" stroke="black" cx="70.84" cy="-90" rx="57.39" ry="18"/>
<text text-anchor="middle" x="70.84" y="-86.3" font-family="Times,serif" font-size="14.00">:core:data</text>
</g>
<!-- :app&#45;&gt;:core:data -->
<g id="edge2" class="edge">
<title>:app&#45;&gt;:core:data</title>
<path fill="none" stroke="black" d="M78.05,-217.24C71.26,-207.17 63.4,-193.5 59.84,-180 54.44,-159.49 57.91,-135.6 62.33,-117.74"/>
<polygon fill="black" stroke="black" points="65.73,-118.56 64.98,-107.99 58.98,-116.72 65.73,-118.56"/>
</g>
<!-- :core:service -->
<g id="node4" class="node">
<title>:core:service</title>
<ellipse fill="none" stroke="black" cx="138.84" cy="-162" rx="69.59" ry="18"/>
<text text-anchor="middle" x="138.84" y="-158.3" font-family="Times,serif" font-size="14.00">:core:service</text>
</g>
<!-- :app&#45;&gt;:core:service -->
<g id="edge3" class="edge">
<title>:app&#45;&gt;:core:service</title>
<path fill="none" stroke="red" stroke-width="2" d="M100.96,-217.12C106.93,-208.59 114.42,-197.89 121.17,-188.25"/>
<polygon fill="red" stroke="red" stroke-width="2" points="124.22,-190 127.09,-179.8 118.48,-185.98 124.22,-190"/>
</g>
<!-- :navigation -->
<g id="node5" class="node">
<title>:navigation</title>
<ellipse fill="none" stroke="black" cx="288.84" cy="-162" rx="62.29" ry="18"/>
<text text-anchor="middle" x="288.84" y="-158.3" font-family="Times,serif" font-size="14.00">:navigation</text>
</g>
<!-- :app&#45;&gt;:navigation -->
<g id="edge4" class="edge">
<title>:app&#45;&gt;:navigation</title>
<path fill="none" stroke="black" d="M115.45,-223.99C147.1,-212.86 201.59,-193.69 241.05,-179.81"/>
<polygon fill="black" stroke="black" points="242.46,-183.03 250.73,-176.41 240.14,-176.42 242.46,-183.03"/>
</g>
<!-- :core:data&#45;&gt;:core:domain -->
<g id="edge5" class="edge">
<title>:core:data&#45;&gt;:core:domain</title>
<path fill="none" stroke="red" stroke-width="2" d="M70.84,-71.7C70.84,-63.98 70.84,-54.71 70.84,-46.11"/>
<polygon fill="red" stroke="red" stroke-width="2" points="74.34,-46.1 70.84,-36.1 67.34,-46.1 74.34,-46.1"/>
</g>
<!-- :core:service&#45;&gt;:core:domain -->
<g id="edge6" class="edge">
<title>:core:service&#45;&gt;:core:domain</title>
<path fill="none" stroke="black" d="M142.54,-143.93C145.7,-125.23 148.13,-94.87 136.84,-72 130.63,-59.4 119.84,-48.82 108.78,-40.5"/>
<polygon fill="black" stroke="black" points="110.53,-37.46 100.33,-34.59 106.51,-43.19 110.53,-37.46"/>
</g>
<!-- :core:service&#45;&gt;:core:data -->
<g id="edge7" class="edge">
<title>:core:service&#45;&gt;:core:data</title>
<path fill="none" stroke="red" stroke-width="2" d="M122.73,-144.41C114.18,-135.61 103.51,-124.63 94.08,-114.92"/>
<polygon fill="red" stroke="red" stroke-width="2" points="96.32,-112.2 86.84,-107.47 91.3,-117.08 96.32,-112.2"/>
</g>
</g>
</svg>
