<?xml version="1.0" encoding="UTF-8" standalone="no"?>
<!DOCTYPE svg PUBLIC "-//W3C//DTD SVG 1.1//EN"
 "http://www.w3.org/Graphics/SVG/1.1/DTD/svg11.dtd">
<!-- Generated by graphviz version 2.43.0 (0)
 -->
<!-- Title: G Pages: 1 -->
<svg width="220pt" height="260pt"
 viewBox="0.00 0.00 220.03 260.00" xmlns="http://www.w3.org/2000/svg" xmlns:xlink="http://www.w3.org/1999/xlink">
<g id="graph0" class="graph" transform="scale(1 1) rotate(0) translate(4 256)">
<title>G</title>
<polygon fill="white" stroke="transparent" points="-4,4 -4,-256 216.03,-256 216.03,4 -4,4"/>
<!-- :app -->
<g id="node1" class="node">
<title>:app</title>
<ellipse fill="none" stroke="black" cx="44.49" cy="-234" rx="30.59" ry="18"/>
<text text-anchor="middle" x="44.49" y="-230.3" font-family="Times,serif" font-size="14.00">:app</text>
</g>
<!-- :core:domain -->
<g id="node2" class="node">
<title>:core:domain</title>
<ellipse fill="none" stroke="black" cx="74.49" cy="-18" rx="70.69" ry="18"/>
<text text-anchor="middle" x="74.49" y="-14.3" font-family="Times,serif" font-size="14.00">:core:domain</text>
</g>
<!-- :app&#45;&gt;:core:domain -->
<g id="edge1" class="edge">
<title>:app&#45;&gt;:core:domain</title>
<path fill="none" stroke="black" d="M34.13,-216.67C16.52,-186.67 -15.16,-121.33 8.49,-72 14.56,-59.33 25.31,-48.73 36.39,-40.42"/>
<polygon fill="black" stroke="black" points="38.65,-43.11 44.85,-34.52 34.65,-37.37 38.65,-43.11"/>
</g>
<!-- :core:data -->
<g id="node3" class="node">
<title>:core:data</title>
<ellipse fill="none" stroke="black" cx="74.49" cy="-90" rx="57.39" ry="18"/>
<text text-anchor="middle" x="74.49" y="-86.3" font-family="Times,serif" font-size="14.00">:core:data</text>
</g>
<!-- :app&#45;&gt;:core:data -->
<g id="edge2" class="edge">
<title>:app&#45;&gt;:core:data</title>
<path fill="none" stroke="black" d="M48.11,-215.87C53.24,-191.56 62.7,-146.82 68.78,-118.01"/>
<polygon fill="black" stroke="black" points="72.21,-118.7 70.86,-108.19 65.37,-117.25 72.21,-118.7"/>
</g>
<!-- :core:service -->
<g id="node4" class="node">
<title>:core:service</title>
<ellipse fill="none" stroke="black" cx="142.49" cy="-162" rx="69.59" ry="18"/>
<text text-anchor="middle" x="142.49" y="-158.3" font-family="Times,serif" font-size="14.00">:core:service</text>
</g>
<!-- :app&#45;&gt;:core:service -->
<g id="edge3" class="edge">
<title>:app&#45;&gt;:core:service</title>
<path fill="none" stroke="red" stroke-width="2" d="M63.38,-219.5C76.99,-209.78 95.66,-196.45 111.45,-185.17"/>
<polygon fill="red" stroke="red" stroke-width="2" points="113.76,-187.82 119.87,-179.16 109.7,-182.12 113.76,-187.82"/>
</g>
<!-- :core:data&#45;&gt;:core:domain -->
<g id="edge4" class="edge">
<title>:core:data&#45;&gt;:core:domain</title>
<path fill="none" stroke="red" stroke-width="2" d="M74.49,-71.7C74.49,-63.98 74.49,-54.71 74.49,-46.11"/>
<polygon fill="red" stroke="red" stroke-width="2" points="77.99,-46.1 74.49,-36.1 70.99,-46.1 77.99,-46.1"/>
</g>
<!-- :core:service&#45;&gt;:core:domain -->
<g id="edge5" class="edge">
<title>:core:service&#45;&gt;:core:domain</title>
<path fill="none" stroke="black" d="M146.19,-143.93C149.34,-125.23 151.77,-94.87 140.49,-72 134.27,-59.4 123.49,-48.82 112.42,-40.5"/>
<polygon fill="black" stroke="black" points="114.17,-37.46 103.97,-34.59 110.16,-43.19 114.17,-37.46"/>
</g>
<!-- :core:service&#45;&gt;:core:data -->
<g id="edge6" class="edge">
<title>:core:service&#45;&gt;:core:data</title>
<path fill="none" stroke="red" stroke-width="2" d="M126.37,-144.41C117.82,-135.61 107.16,-124.63 97.72,-114.92"/>
<polygon fill="red" stroke="red" stroke-width="2" points="99.97,-112.2 90.49,-107.47 94.95,-117.08 99.97,-112.2"/>
</g>
</g>
</svg>
