<?xml version="1.0" encoding="UTF-8" standalone="no"?>
<!DOCTYPE svg PUBLIC "-//W3C//DTD SVG 1.1//EN"
 "http://www.w3.org/Graphics/SVG/1.1/DTD/svg11.dtd">
<!-- Generated by graphviz version 2.43.0 (0)
 -->
<!-- Title: G Pages: 1 -->
<svg width="788pt" height="260pt"
 viewBox="0.00 0.00 788.01 260.00" xmlns="http://www.w3.org/2000/svg" xmlns:xlink="http://www.w3.org/1999/xlink">
<g id="graph0" class="graph" transform="scale(1 1) rotate(0) translate(4 256)">
<title>G</title>
<polygon fill="white" stroke="transparent" points="-4,4 -4,-256 784.01,-256 784.01,4 -4,4"/>
<!-- :app -->
<g id="node1" class="node">
<title>:app</title>
<ellipse fill="none" stroke="black" cx="49.87" cy="-234" rx="30.59" ry="18"/>
<text text-anchor="middle" x="49.87" y="-230.3" font-family="Times,serif" font-size="14.00">:app</text>
</g>
<!-- :core:domain -->
<g id="node2" class="node">
<title>:core:domain</title>
<ellipse fill="none" stroke="black" cx="222.87" cy="-18" rx="70.69" ry="18"/>
<text text-anchor="middle" x="222.87" y="-14.3" font-family="Times,serif" font-size="14.00">:core:domain</text>
</g>
<!-- :app&#45;&gt;:core:domain -->
<g id="edge1" class="edge">
<title>:app&#45;&gt;:core:domain</title>
<path fill="none" stroke="black" d="M38.55,-216.96C18.02,-185.7 -20.25,-115.85 13.87,-72 30.69,-50.39 96.56,-36.17 149.91,-27.95"/>
<polygon fill="black" stroke="black" points="150.68,-31.37 160.06,-26.43 149.65,-24.45 150.68,-31.37"/>
</g>
<!-- :core:data -->
<g id="node3" class="node">
<title>:core:data</title>
<ellipse fill="none" stroke="black" cx="79.87" cy="-90" rx="57.39" ry="18"/>
<text text-anchor="middle" x="79.87" y="-86.3" font-family="Times,serif" font-size="14.00">:core:data</text>
</g>
<!-- :app&#45;&gt;:core:data -->
<g id="edge2" class="edge">
<title>:app&#45;&gt;:core:data</title>
<path fill="none" stroke="black" d="M53.49,-215.87C58.63,-191.56 68.08,-146.82 74.16,-118.01"/>
<polygon fill="black" stroke="black" points="77.6,-118.7 76.24,-108.19 70.75,-117.25 77.6,-118.7"/>
</g>
<!-- :core:service -->
<g id="node4" class="node">
<title>:core:service</title>
<ellipse fill="none" stroke="black" cx="147.87" cy="-162" rx="69.59" ry="18"/>
<text text-anchor="middle" x="147.87" y="-158.3" font-family="Times,serif" font-size="14.00">:core:service</text>
</g>
<!-- :app&#45;&gt;:core:service -->
<g id="edge3" class="edge">
<title>:app&#45;&gt;:core:service</title>
<path fill="none" stroke="red" stroke-width="2" d="M68.77,-219.5C82.38,-209.78 101.04,-196.45 116.83,-185.17"/>
<polygon fill="red" stroke="red" stroke-width="2" points="119.15,-187.82 125.25,-179.16 115.08,-182.12 119.15,-187.82"/>
</g>
<!-- :core:data&#45;&gt;:core:domain -->
<g id="edge4" class="edge">
<title>:core:data&#45;&gt;:core:domain</title>
<path fill="none" stroke="red" stroke-width="2" d="M109.5,-74.5C130.64,-64.15 159.32,-50.11 182.54,-38.74"/>
<polygon fill="red" stroke="red" stroke-width="2" points="184.35,-41.75 191.8,-34.21 181.27,-35.46 184.35,-41.75"/>
</g>
<!-- :core:service&#45;&gt;:core:domain -->
<g id="edge5" class="edge">
<title>:core:service&#45;&gt;:core:domain</title>
<path fill="none" stroke="black" d="M153.31,-144.02C159.52,-125.68 170.54,-95.86 183.87,-72 189.22,-62.43 196.04,-52.58 202.48,-44.01"/>
<polygon fill="black" stroke="black" points="205.38,-45.98 208.72,-35.93 199.84,-41.7 205.38,-45.98"/>
</g>
<!-- :core:service&#45;&gt;:core:data -->
<g id="edge6" class="edge">
<title>:core:service&#45;&gt;:core:data</title>
<path fill="none" stroke="red" stroke-width="2" d="M131.76,-144.41C123.2,-135.61 112.54,-124.63 103.11,-114.92"/>
<polygon fill="red" stroke="red" stroke-width="2" points="105.35,-112.2 95.87,-107.47 100.33,-117.08 105.35,-112.2"/>
</g>
<!-- :feature:settings -->
<g id="node5" class="node">
<title>:feature:settings</title>
<ellipse fill="none" stroke="black" cx="280.87" cy="-90" rx="87.99" ry="18"/>
<text text-anchor="middle" x="280.87" y="-86.3" font-family="Times,serif" font-size="14.00">:feature:settings</text>
</g>
<!-- :feature:settings&#45;&gt;:core:domain -->
<g id="edge7" class="edge">
<title>:feature:settings&#45;&gt;:core:domain</title>
<path fill="none" stroke="black" d="M266.83,-72.05C259.78,-63.54 251.1,-53.07 243.32,-43.68"/>
<polygon fill="black" stroke="black" points="245.86,-41.26 236.78,-35.79 240.47,-45.72 245.86,-41.26"/>
</g>
<!-- :feature:onboarding -->
<g id="node6" class="node">
<title>:feature:onboarding</title>
<ellipse fill="none" stroke="black" cx="488.87" cy="-90" rx="102.88" ry="18"/>
<text text-anchor="middle" x="488.87" y="-86.3" font-family="Times,serif" font-size="14.00">:feature:onboarding</text>
</g>
<!-- :feature:onboarding&#45;&gt;:core:domain -->
<g id="edge8" class="edge">
<title>:feature:onboarding&#45;&gt;:core:domain</title>
<path fill="none" stroke="black" d="M434.4,-74.67C389.37,-62.82 325.63,-46.04 279.91,-34.01"/>
<polygon fill="black" stroke="black" points="280.71,-30.6 270.15,-31.44 278.93,-37.37 280.71,-30.6"/>
</g>
<!-- :feature:devices -->
<g id="node7" class="node">
<title>:feature:devices</title>
<ellipse fill="none" stroke="black" cx="694.87" cy="-90" rx="85.29" ry="18"/>
<text text-anchor="middle" x="694.87" y="-86.3" font-family="Times,serif" font-size="14.00">:feature:devices</text>
</g>
<!-- :feature:devices&#45;&gt;:core:domain -->
<g id="edge9" class="edge">
<title>:feature:devices&#45;&gt;:core:domain</title>
<path fill="none" stroke="black" d="M633.24,-77.49C622.47,-75.58 611.35,-73.68 600.87,-72 494.42,-54.92 370.6,-38.14 294.49,-28.18"/>
<polygon fill="black" stroke="black" points="294.9,-24.71 284.53,-26.88 293.99,-31.65 294.9,-24.71"/>
</g>
</g>
</svg>
