<?xml version="1.0" encoding="UTF-8" standalone="no"?>
<!DOCTYPE svg PUBLIC "-//W3C//DTD SVG 1.1//EN"
 "http://www.w3.org/Graphics/SVG/1.1/DTD/svg11.dtd">
<!-- Generated by graphviz version 14.1.5 (20260411.2331)
 -->
<!-- Title: G Pages: 1 -->
<svg width="662pt" height="260pt"
 viewBox="0.00 0.00 662.00 260.00" xmlns="http://www.w3.org/2000/svg" xmlns:xlink="http://www.w3.org/1999/xlink">
<g id="graph0" class="graph" transform="scale(1 1) rotate(0) translate(4 256)">
<title>G</title>
<polygon fill="white" stroke="none" points="-4,4 -4,-256 658.09,-256 658.09,4 -4,4"/>
<!-- :app -->
<g id="node1" class="node">
<title>:app</title>
<ellipse fill="none" stroke="black" cx="45.82" cy="-234" rx="27" ry="18"/>
<text xml:space="preserve" text-anchor="middle" x="45.82" y="-228.95" font-family="Times,serif" font-size="14.00">:app</text>
</g>
<!-- :core:domain -->
<g id="node2" class="node">
<title>:core:domain</title>
<ellipse fill="none" stroke="black" cx="193.82" cy="-18" rx="60.05" ry="18"/>
<text xml:space="preserve" text-anchor="middle" x="193.82" y="-12.95" font-family="Times,serif" font-size="14.00">:core:domain</text>
</g>
<!-- :app&#45;&gt;:core:domain -->
<g id="edge1" class="edge">
<title>:app&#45;&gt;:core:domain</title>
<path fill="none" stroke="black" d="M35.28,-217.03C16.16,-185.9 -19.29,-116.27 13.82,-72 28.06,-52.96 84.58,-38.4 130.54,-29.41"/>
<polygon fill="black" stroke="black" points="131,-32.88 140.18,-27.58 129.7,-26 131,-32.88"/>
</g>
<!-- :core:data -->
<g id="node3" class="node">
<title>:core:data</title>
<ellipse fill="none" stroke="black" cx="69.82" cy="-90" rx="47.26" ry="18"/>
<text xml:space="preserve" text-anchor="middle" x="69.82" y="-84.95" font-family="Times,serif" font-size="14.00">:core:data</text>
</g>
<!-- :app&#45;&gt;:core:data -->
<g id="edge2" class="edge">
<title>:app&#45;&gt;:core:data</title>
<path fill="none" stroke="black" d="M48.72,-215.87C52.77,-191.88 60.19,-147.99 65.06,-119.16"/>
<polygon fill="black" stroke="black" points="68.45,-120.13 66.67,-109.68 61.55,-118.96 68.45,-120.13"/>
</g>
<!-- :core:service -->
<g id="node4" class="node">
<title>:core:service</title>
<ellipse fill="none" stroke="black" cx="131.82" cy="-162" rx="58" ry="18"/>
<text xml:space="preserve" text-anchor="middle" x="131.82" y="-156.95" font-family="Times,serif" font-size="14.00">:core:service</text>
</g>
<!-- :app&#45;&gt;:core:service -->
<g id="edge3" class="edge">
<title>:app&#45;&gt;:core:service</title>
<path fill="none" stroke="red" stroke-width="2" d="M62.41,-219.5C74.02,-210.05 89.82,-197.19 103.42,-186.12"/>
<polygon fill="red" stroke="red" stroke-width="2" points="104.08,-190.1 109.62,-181.07 99.66,-184.67 104.08,-190.1"/>
</g>
<!-- :core:data&#45;&gt;:core:domain -->
<g id="edge4" class="edge">
<title>:core:data&#45;&gt;:core:domain</title>
<path fill="none" stroke="red" stroke-width="2" d="M95.52,-74.5C113.16,-64.54 136.85,-51.16 156.56,-40.04"/>
<polygon fill="red" stroke="red" stroke-width="2" points="156.82,-43.91 163.81,-35.94 153.38,-37.81 156.82,-43.91"/>
</g>
<!-- :core:service&#45;&gt;:core:domain -->
<g id="edge5" class="edge">
<title>:core:service&#45;&gt;:core:domain</title>
<path fill="none" stroke="black" d="M137.11,-143.59C142.86,-125.4 152.73,-96.18 163.82,-72 167.85,-63.22 172.83,-53.95 177.56,-45.66"/>
<polygon fill="black" stroke="black" points="180.54,-47.5 182.58,-37.11 174.5,-43.97 180.54,-47.5"/>
</g>
<!-- :core:service&#45;&gt;:core:data -->
<g id="edge6" class="edge">
<title>:core:service&#45;&gt;:core:data</title>
<path fill="none" stroke="red" stroke-width="2" d="M117.13,-144.41C109.64,-135.95 100.38,-125.49 92.04,-116.08"/>
<polygon fill="red" stroke="red" stroke-width="2" points="95.67,-114.9 86.42,-109.74 90.43,-119.54 95.67,-114.9"/>
</g>
<!-- :feature:settings -->
<g id="node5" class="node">
<title>:feature:settings</title>
<ellipse fill="none" stroke="black" cx="242.82" cy="-90" rx="69.78" ry="18"/>
<text xml:space="preserve" text-anchor="middle" x="242.82" y="-84.95" font-family="Times,serif" font-size="14.00">:feature:settings</text>
</g>
<!-- :feature:settings&#45;&gt;:core:domain -->
<g id="edge7" class="edge">
<title>:feature:settings&#45;&gt;:core:domain</title>
<path fill="none" stroke="black" d="M230.96,-72.05C225.3,-63.97 218.41,-54.12 212.1,-45.11"/>
<polygon fill="black" stroke="black" points="215.05,-43.21 206.44,-37.03 209.31,-47.23 215.05,-43.21"/>
</g>
<!-- :feature:onboarding -->
<g id="node6" class="node">
<title>:feature:onboarding</title>
<ellipse fill="none" stroke="black" cx="413.82" cy="-90" rx="83.6" ry="18"/>
<text xml:space="preserve" text-anchor="middle" x="413.82" y="-84.95" font-family="Times,serif" font-size="14.00">:feature:onboarding</text>
</g>
<!-- :feature:onboarding&#45;&gt;:core:domain -->
<g id="edge8" class="edge">
<title>:feature:onboarding&#45;&gt;:core:domain</title>
<path fill="none" stroke="black" d="M368.24,-74.5C332.16,-63.01 281.79,-46.99 244.46,-35.11"/>
<polygon fill="black" stroke="black" points="245.84,-31.88 235.25,-32.18 243.72,-38.55 245.84,-31.88"/>
</g>
<!-- :feature:devices -->
<g id="node7" class="node">
<title>:feature:devices</title>
<ellipse fill="none" stroke="black" cx="584.82" cy="-90" rx="69.26" ry="18"/>
<text xml:space="preserve" text-anchor="middle" x="584.82" y="-84.95" font-family="Times,serif" font-size="14.00">:feature:devices</text>
</g>
<!-- :feature:devices&#45;&gt;:core:domain -->
<g id="edge9" class="edge">
<title>:feature:devices&#45;&gt;:core:domain</title>
<path fill="none" stroke="black" d="M533.71,-77.5C524.76,-75.59 515.53,-73.69 506.82,-72 420.69,-55.33 320.64,-38.9 257.3,-28.85"/>
<polygon fill="black" stroke="black" points="258.21,-25.46 247.79,-27.35 257.12,-32.37 258.21,-25.46"/>
</g>
</g>
</svg>
