<?xml version="1.0" encoding="UTF-8" standalone="no"?>
<!DOCTYPE svg PUBLIC "-//W3C//DTD SVG 1.1//EN"
 "http://www.w3.org/Graphics/SVG/1.1/DTD/svg11.dtd">
<!-- Generated by graphviz version 14.1.5 (20260411.2331)
 -->
<!-- Title: G Pages: 1 -->
<svg width="192pt" height="260pt"
 viewBox="0.00 0.00 192.00 260.00" xmlns="http://www.w3.org/2000/svg" xmlns:xlink="http://www.w3.org/1999/xlink">
<g id="graph0" class="graph" transform="scale(1 1) rotate(0) translate(4 256)">
<title>G</title>
<polygon fill="white" stroke="none" points="-4,4 -4,-256 187.88,-256 187.88,4 -4,4"/>
<!-- :app -->
<g id="node1" class="node">
<title>:app</title>
<ellipse fill="none" stroke="black" cx="39.87" cy="-234" rx="27" ry="18"/>
<text xml:space="preserve" text-anchor="middle" x="39.87" y="-228.95" font-family="Times,serif" font-size="14.00">:app</text>
</g>
<!-- :core:domain -->
<g id="node2" class="node">
<title>:core:domain</title>
<ellipse fill="none" stroke="black" cx="63.87" cy="-18" rx="60.05" ry="18"/>
<text xml:space="preserve" text-anchor="middle" x="63.87" y="-12.95" font-family="Times,serif" font-size="14.00">:core:domain</text>
</g>
<!-- :app&#45;&gt;:core:domain -->
<g id="edge1" class="edge">
<title>:app&#45;&gt;:core:domain</title>
<path fill="none" stroke="black" d="M30.57,-216.8C14.76,-187.01 -13.65,-122 7.87,-72 12.81,-60.54 21.57,-50.4 30.72,-42.13"/>
<polygon fill="black" stroke="black" points="32.91,-44.87 38.34,-35.78 28.42,-39.5 32.91,-44.87"/>
</g>
<!-- :core:data -->
<g id="node3" class="node">
<title>:core:data</title>
<ellipse fill="none" stroke="black" cx="63.87" cy="-90" rx="47.26" ry="18"/>
<text xml:space="preserve" text-anchor="middle" x="63.87" y="-84.95" font-family="Times,serif" font-size="14.00">:core:data</text>
</g>
<!-- :app&#45;&gt;:core:data -->
<g id="edge2" class="edge">
<title>:app&#45;&gt;:core:data</title>
<path fill="none" stroke="black" d="M42.77,-215.87C46.82,-191.88 54.24,-147.99 59.11,-119.16"/>
<polygon fill="black" stroke="black" points="62.5,-120.13 60.71,-109.68 55.6,-118.96 62.5,-120.13"/>
</g>
<!-- :core:service -->
<g id="node4" class="node">
<title>:core:service</title>
<ellipse fill="none" stroke="black" cx="125.87" cy="-162" rx="58" ry="18"/>
<text xml:space="preserve" text-anchor="middle" x="125.87" y="-156.95" font-family="Times,serif" font-size="14.00">:core:service</text>
</g>
<!-- :app&#45;&gt;:core:service -->
<g id="edge3" class="edge">
<title>:app&#45;&gt;:core:service</title>
<path fill="none" stroke="red" stroke-width="2" d="M56.45,-219.5C68.07,-210.05 83.87,-197.19 97.47,-186.12"/>
<polygon fill="red" stroke="red" stroke-width="2" points="98.13,-190.1 103.67,-181.07 93.71,-184.67 98.13,-190.1"/>
</g>
<!-- :core:data&#45;&gt;:core:domain -->
<g id="edge4" class="edge">
<title>:core:data&#45;&gt;:core:domain</title>
<path fill="none" stroke="red" stroke-width="2" d="M63.87,-71.7C63.87,-64.41 63.87,-55.73 63.87,-47.54"/>
<polygon fill="red" stroke="red" stroke-width="2" points="67.37,-49.13 63.87,-39.13 60.37,-49.13 67.37,-49.13"/>
</g>
<!-- :core:service&#45;&gt;:core:domain -->
<g id="edge5" class="edge">
<title>:core:service&#45;&gt;:core:domain</title>
<path fill="none" stroke="black" d="M128.3,-143.68C130.11,-125.04 130.69,-94.98 119.87,-72 114.51,-60.62 105.54,-50.45 96.33,-42.14"/>
<polygon fill="black" stroke="black" points="98.61,-39.49 88.7,-35.74 94.11,-44.85 98.61,-39.49"/>
</g>
<!-- :core:service&#45;&gt;:core:data -->
<g id="edge6" class="edge">
<title>:core:service&#45;&gt;:core:data</title>
<path fill="none" stroke="red" stroke-width="2" d="M111.18,-144.41C103.69,-135.95 94.42,-125.49 86.08,-116.08"/>
<polygon fill="red" stroke="red" stroke-width="2" points="89.72,-114.9 80.47,-109.74 84.48,-119.54 89.72,-114.9"/>
</g>
</g>
</svg>
