<?xml version="1.0" encoding="UTF-8" standalone="no"?>
<!DOCTYPE svg PUBLIC "-//W3C//DTD SVG 1.1//EN"
 "http://www.w3.org/Graphics/SVG/1.1/DTD/svg11.dtd">
<!-- Generated by graphviz version 14.1.5 (20260411.2331)
 -->
<!-- Title: G Pages: 1 -->
<svg width="316pt" height="188pt"
 viewBox="0.00 0.00 316.00 188.00" xmlns="http://www.w3.org/2000/svg" xmlns:xlink="http://www.w3.org/1999/xlink">
<g id="graph0" class="graph" transform="scale(1 1) rotate(0) translate(4 184)">
<title>G</title>
<polygon fill="white" stroke="none" points="-4,4 -4,-184 312.11,-184 312.11,4 -4,4"/>
<!-- :app -->
<g id="node1" class="node">
<title>:app</title>
<ellipse fill="none" stroke="black" cx="143.05" cy="-162" rx="27" ry="18"/>
<text xml:space="preserve" text-anchor="middle" x="143.05" y="-156.95" font-family="Times,serif" font-size="14.00">:app</text>
</g>
<!-- :core:domain -->
<g id="node2" class="node">
<title>:core:domain</title>
<ellipse fill="none" stroke="black" cx="60.05" cy="-18" rx="60.05" ry="18"/>
<text xml:space="preserve" text-anchor="middle" x="60.05" y="-12.95" font-family="Times,serif" font-size="14.00">:core:domain</text>
</g>
<!-- :app&#45;&gt;:core:domain -->
<g id="edge1" class="edge">
<title>:app&#45;&gt;:core:domain</title>
<path fill="none" stroke="black" d="M122.42,-150.15C107.13,-141 87.1,-126.45 76.05,-108 65.18,-89.86 61.32,-66.17 60.11,-47.79"/>
<polygon fill="black" stroke="black" points="63.6,-47.68 59.7,-37.83 56.61,-47.97 63.6,-47.68"/>
</g>
<!-- :core:designsystem -->
<g id="node3" class="node">
<title>:core:designsystem</title>
<ellipse fill="none" stroke="black" cx="226.05" cy="-18" rx="82.06" ry="18"/>
<text xml:space="preserve" text-anchor="middle" x="226.05" y="-12.95" font-family="Times,serif" font-size="14.00">:core:designsystem</text>
</g>
<!-- :app&#45;&gt;:core:designsystem -->
<g id="edge2" class="edge">
<title>:app&#45;&gt;:core:designsystem</title>
<path fill="none" stroke="black" d="M163.68,-150.15C178.97,-141 199,-126.45 210.05,-108 220.92,-89.86 224.78,-66.17 226,-47.79"/>
<polygon fill="black" stroke="black" points="229.49,-47.97 226.41,-37.83 222.5,-47.68 229.49,-47.97"/>
</g>
<!-- :core:service -->
<g id="node4" class="node">
<title>:core:service</title>
<ellipse fill="none" stroke="black" cx="143.05" cy="-90" rx="58" ry="18"/>
<text xml:space="preserve" text-anchor="middle" x="143.05" y="-84.95" font-family="Times,serif" font-size="14.00">:core:service</text>
</g>
<!-- :app&#45;&gt;:core:service -->
<g id="edge3" class="edge">
<title>:app&#45;&gt;:core:service</title>
<path fill="none" stroke="black" d="M143.05,-143.7C143.05,-136.41 143.05,-127.73 143.05,-119.54"/>
<polygon fill="black" stroke="black" points="146.55,-119.62 143.05,-109.62 139.55,-119.62 146.55,-119.62"/>
</g>
<!-- :core:service&#45;&gt;:core:domain -->
<g id="edge5" class="edge">
<title>:core:service&#45;&gt;:core:domain</title>
<path fill="none" stroke="black" d="M123.8,-72.76C113.19,-63.82 99.83,-52.55 88.08,-42.64"/>
<polygon fill="black" stroke="black" points="90.54,-40.14 80.64,-36.37 86.03,-45.49 90.54,-40.14"/>
</g>
<!-- :core:service&#45;&gt;:core:designsystem -->
<g id="edge4" class="edge">
<title>:core:service&#45;&gt;:core:designsystem</title>
<path fill="none" stroke="black" d="M162.3,-72.76C172.76,-63.95 185.89,-52.87 197.51,-43.07"/>
<polygon fill="black" stroke="black" points="199.49,-45.98 204.88,-36.85 194.98,-40.63 199.49,-45.98"/>
</g>
</g>
</svg>
