<?xml version="1.0" encoding="UTF-8" standalone="no"?>
<!DOCTYPE svg PUBLIC "-//W3C//DTD SVG 1.1//EN"
 "http://www.w3.org/Graphics/SVG/1.1/DTD/svg11.dtd">
<!-- Generated by graphviz version 2.43.0 (0)
 -->
<!-- Title: G Pages: 1 -->
<svg width="1082pt" height="188pt"
 viewBox="0.00 0.00 1081.66 188.00" xmlns="http://www.w3.org/2000/svg" xmlns:xlink="http://www.w3.org/1999/xlink">
<g id="graph0" class="graph" transform="scale(1 1) rotate(0) translate(4 184)">
<title>G</title>
<polygon fill="white" stroke="transparent" points="-4,4 -4,-184 1077.66,-184 1077.66,4 -4,4"/>
<!-- :app -->
<g id="node1" class="node">
<title>:app</title>
<ellipse fill="none" stroke="black" cx="72.76" cy="-162" rx="30.59" ry="18"/>
<text text-anchor="middle" x="72.76" y="-158.3" font-family="Times,serif" font-size="14.00">:app</text>
</g>
<!-- :core:domain -->
<g id="node2" class="node">
<title>:core:domain</title>
<ellipse fill="none" stroke="black" cx="392.76" cy="-18" rx="70.69" ry="18"/>
<text text-anchor="middle" x="392.76" y="-14.3" font-family="Times,serif" font-size="14.00">:core:domain</text>
</g>
<!-- :app&#45;&gt;:core:domain -->
<g id="edge1" class="edge">
<title>:app&#45;&gt;:core:domain</title>
<path fill="none" stroke="black" d="M50.2,-149.83C34.83,-140.86 15.72,-126.68 6.76,-108 -0.16,-93.57 -3.75,-84.06 6.76,-72 45.5,-27.58 210.37,-19.08 311.69,-18.17"/>
<polygon fill="black" stroke="black" points="311.92,-21.67 321.9,-18.11 311.88,-14.67 311.92,-21.67"/>
</g>
<!-- :core:data -->
<g id="node3" class="node">
<title>:core:data</title>
<ellipse fill="none" stroke="black" cx="72.76" cy="-90" rx="57.39" ry="18"/>
<text text-anchor="middle" x="72.76" y="-86.3" font-family="Times,serif" font-size="14.00">:core:data</text>
</g>
<!-- :app&#45;&gt;:core:data -->
<g id="edge2" class="edge">
<title>:app&#45;&gt;:core:data</title>
<path fill="none" stroke="black" d="M72.76,-143.7C72.76,-135.98 72.76,-126.71 72.76,-118.11"/>
<polygon fill="black" stroke="black" points="76.26,-118.1 72.76,-108.1 69.26,-118.1 76.26,-118.1"/>
</g>
<!-- :core:service -->
<g id="node4" class="node">
<title>:core:service</title>
<ellipse fill="none" stroke="black" cx="217.76" cy="-90" rx="69.59" ry="18"/>
<text text-anchor="middle" x="217.76" y="-86.3" font-family="Times,serif" font-size="14.00">:core:service</text>
</g>
<!-- :app&#45;&gt;:core:service -->
<g id="edge3" class="edge">
<title>:app&#45;&gt;:core:service</title>
<path fill="none" stroke="black" d="M95.74,-149.91C117.5,-139.4 150.67,-123.39 176.93,-110.71"/>
<polygon fill="black" stroke="black" points="178.78,-113.71 186.26,-106.21 175.74,-107.4 178.78,-113.71"/>
</g>
<!-- :core:data&#45;&gt;:core:domain -->
<g id="edge4" class="edge">
<title>:core:data&#45;&gt;:core:domain</title>
<path fill="none" stroke="black" d="M114.94,-77.83C122.84,-75.82 131.04,-73.8 138.76,-72 202.93,-57.05 276.68,-41.88 328.12,-31.63"/>
<polygon fill="black" stroke="black" points="328.97,-35.03 338.1,-29.64 327.61,-28.16 328.97,-35.03"/>
</g>
<!-- :core:service&#45;&gt;:core:domain -->
<g id="edge5" class="edge">
<title>:core:service&#45;&gt;:core:domain</title>
<path fill="none" stroke="black" d="M254.02,-74.5C281.01,-63.7 318.03,-48.89 347.04,-37.29"/>
<polygon fill="black" stroke="black" points="348.56,-40.45 356.55,-33.49 345.96,-33.95 348.56,-40.45"/>
</g>
<!-- :feature:settings -->
<g id="node5" class="node">
<title>:feature:settings</title>
<ellipse fill="none" stroke="black" cx="392.76" cy="-90" rx="87.99" ry="18"/>
<text text-anchor="middle" x="392.76" y="-86.3" font-family="Times,serif" font-size="14.00">:feature:settings</text>
</g>
<!-- :feature:settings&#45;&gt;:core:domain -->
<g id="edge6" class="edge">
<title>:feature:settings&#45;&gt;:core:domain</title>
<path fill="none" stroke="red" stroke-width="2" d="M392.76,-71.7C392.76,-63.98 392.76,-54.71 392.76,-46.11"/>
<polygon fill="red" stroke="red" stroke-width="2" points="396.26,-46.1 392.76,-36.1 389.26,-46.1 396.26,-46.1"/>
</g>
<!-- :feature:onboarding -->
<g id="node6" class="node">
<title>:feature:onboarding</title>
<ellipse fill="none" stroke="black" cx="600.76" cy="-90" rx="102.88" ry="18"/>
<text text-anchor="middle" x="600.76" y="-86.3" font-family="Times,serif" font-size="14.00">:feature:onboarding</text>
</g>
<!-- :feature:onboarding&#45;&gt;:core:domain -->
<g id="edge7" class="edge">
<title>:feature:onboarding&#45;&gt;:core:domain</title>
<path fill="none" stroke="black" d="M555.63,-73.81C522.57,-62.69 477.68,-47.58 443.4,-36.04"/>
<polygon fill="black" stroke="black" points="444.17,-32.61 433.58,-32.74 441.94,-39.24 444.17,-32.61"/>
</g>
<!-- :feature:devices -->
<g id="node7" class="node">
<title>:feature:devices</title>
<ellipse fill="none" stroke="black" cx="806.76" cy="-90" rx="85.29" ry="18"/>
<text text-anchor="middle" x="806.76" y="-86.3" font-family="Times,serif" font-size="14.00">:feature:devices</text>
</g>
<!-- :feature:devices&#45;&gt;:core:domain -->
<g id="edge8" class="edge">
<title>:feature:devices&#45;&gt;:core:domain</title>
<path fill="none" stroke="black" d="M744.59,-77.62C733.98,-75.72 723.06,-73.78 712.76,-72 625.99,-56.97 525.82,-40.52 461,-30"/>
<polygon fill="black" stroke="black" points="461.34,-26.51 450.91,-28.37 460.22,-33.42 461.34,-26.51"/>
</g>
<!-- :feature:widget -->
<g id="node8" class="node">
<title>:feature:widget</title>
<ellipse fill="none" stroke="black" cx="991.76" cy="-90" rx="81.79" ry="18"/>
<text text-anchor="middle" x="991.76" y="-86.3" font-family="Times,serif" font-size="14.00">:feature:widget</text>
</g>
<!-- :feature:widget&#45;&gt;:core:domain -->
<g id="edge9" class="edge">
<title>:feature:widget&#45;&gt;:core:domain</title>
<path fill="none" stroke="black" d="M933.14,-77.33C922.39,-75.39 911.26,-73.53 900.76,-72 748.48,-49.87 569.21,-33.39 469.53,-25.07"/>
<polygon fill="black" stroke="black" points="469.8,-21.58 459.54,-24.24 469.22,-28.55 469.8,-21.58"/>
</g>
</g>
</svg>
