<?xml version="1.0" encoding="UTF-8" standalone="no"?>
<!DOCTYPE svg PUBLIC "-//W3C//DTD SVG 1.1//EN"
 "http://www.w3.org/Graphics/SVG/1.1/DTD/svg11.dtd">
<!-- Generated by graphviz version 2.43.0 (0)
 -->
<!-- Title: G Pages: 1 -->
<svg width="213pt" height="188pt"
 viewBox="0.00 0.00 213.38 188.00" xmlns="http://www.w3.org/2000/svg" xmlns:xlink="http://www.w3.org/1999/xlink">
<g id="graph0" class="graph" transform="scale(1 1) rotate(0) translate(4 184)">
<title>G</title>
<polygon fill="white" stroke="transparent" points="-4,4 -4,-184 209.38,-184 209.38,4 -4,4"/>
<!-- :navigation -->
<g id="node1" class="node">
<title>:navigation</title>
<ellipse fill="none" stroke="black" cx="102.69" cy="-162" rx="62.29" ry="18"/>
<text text-anchor="middle" x="102.69" y="-158.3" font-family="Times,serif" font-size="14.00">:navigation</text>
</g>
<!-- :feature:onboarding -->
<g id="node2" class="node">
<title>:feature:onboarding</title>
<ellipse fill="none" stroke="black" cx="102.69" cy="-90" rx="102.88" ry="18"/>
<text text-anchor="middle" x="102.69" y="-86.3" font-family="Times,serif" font-size="14.00">:feature:onboarding</text>
</g>
<!-- :navigation&#45;&gt;:feature:onboarding -->
<g id="edge1" class="edge">
<title>:navigation&#45;&gt;:feature:onboarding</title>
<path fill="none" stroke="black" d="M102.69,-143.7C102.69,-135.98 102.69,-126.71 102.69,-118.11"/>
<polygon fill="black" stroke="black" points="106.19,-118.1 102.69,-108.1 99.19,-118.1 106.19,-118.1"/>
</g>
<!-- :core:domain -->
<g id="node3" class="node">
<title>:core:domain</title>
<ellipse fill="none" stroke="black" cx="102.69" cy="-18" rx="70.69" ry="18"/>
<text text-anchor="middle" x="102.69" y="-14.3" font-family="Times,serif" font-size="14.00">:core:domain</text>
</g>
<!-- :feature:onboarding&#45;&gt;:core:domain -->
<g id="edge2" class="edge">
<title>:feature:onboarding&#45;&gt;:core:domain</title>
<path fill="none" stroke="black" d="M102.69,-71.7C102.69,-63.98 102.69,-54.71 102.69,-46.11"/>
<polygon fill="black" stroke="black" points="106.19,-46.1 102.69,-36.1 99.19,-46.1 106.19,-46.1"/>
</g>
</g>
</svg>
