<?xml version="1.0" encoding="UTF-8" standalone="no"?>
<!DOCTYPE svg PUBLIC "-//W3C//DTD SVG 1.1//EN"
 "http://www.w3.org/Graphics/SVG/1.1/DTD/svg11.dtd">
<!-- Generated by graphviz version 14.1.5 (20260411.2331)
 -->
<!-- Title: G Pages: 1 -->
<svg width="147pt" height="188pt"
 viewBox="0.00 0.00 147.00 188.00" xmlns="http://www.w3.org/2000/svg" xmlns:xlink="http://www.w3.org/1999/xlink">
<g id="graph0" class="graph" transform="scale(1 1) rotate(0) translate(4 184)">
<title>G</title>
<polygon fill="white" stroke="none" points="-4,4 -4,-184 142.53,-184 142.53,4 -4,4"/>
<!-- :navigation -->
<g id="node1" class="node">
<title>:navigation</title>
<ellipse fill="none" stroke="black" cx="69.26" cy="-162" rx="52.38" ry="18"/>
<text xml:space="preserve" text-anchor="middle" x="69.26" y="-156.95" font-family="Times,serif" font-size="14.00">:navigation</text>
</g>
<!-- :feature:devices -->
<g id="node2" class="node">
<title>:feature:devices</title>
<ellipse fill="none" stroke="black" cx="69.26" cy="-90" rx="69.26" ry="18"/>
<text xml:space="preserve" text-anchor="middle" x="69.26" y="-84.95" font-family="Times,serif" font-size="14.00">:feature:devices</text>
</g>
<!-- :navigation&#45;&gt;:feature:devices -->
<g id="edge1" class="edge">
<title>:navigation&#45;&gt;:feature:devices</title>
<path fill="none" stroke="black" d="M69.26,-143.7C69.26,-136.41 69.26,-127.73 69.26,-119.54"/>
<polygon fill="black" stroke="black" points="72.76,-119.62 69.26,-109.62 65.76,-119.62 72.76,-119.62"/>
</g>
<!-- :core:domain -->
<g id="node3" class="node">
<title>:core:domain</title>
<ellipse fill="none" stroke="black" cx="69.26" cy="-18" rx="60.05" ry="18"/>
<text xml:space="preserve" text-anchor="middle" x="69.26" y="-12.95" font-family="Times,serif" font-size="14.00">:core:domain</text>
</g>
<!-- :feature:devices&#45;&gt;:core:domain -->
<g id="edge2" class="edge">
<title>:feature:devices&#45;&gt;:core:domain</title>
<path fill="none" stroke="black" d="M69.26,-71.7C69.26,-64.41 69.26,-55.73 69.26,-47.54"/>
<polygon fill="black" stroke="black" points="72.76,-47.62 69.26,-37.62 65.76,-47.62 72.76,-47.62"/>
</g>
</g>
</svg>
