<?xml version="1.0" encoding="UTF-8" standalone="no"?>
<!DOCTYPE svg PUBLIC "-//W3C//DTD SVG 1.1//EN"
 "http://www.w3.org/Graphics/SVG/1.1/DTD/svg11.dtd">
<!-- Generated by graphviz version 2.43.0 (0)
 -->
<!-- Title: G Pages: 1 -->
<svg width="183pt" height="188pt"
 viewBox="0.00 0.00 183.48 188.00" xmlns="http://www.w3.org/2000/svg" xmlns:xlink="http://www.w3.org/1999/xlink">
<g id="graph0" class="graph" transform="scale(1 1) rotate(0) translate(4 184)">
<title>G</title>
<polygon fill="white" stroke="transparent" points="-4,4 -4,-184 179.48,-184 179.48,4 -4,4"/>
<!-- :navigation -->
<g id="node1" class="node">
<title>:navigation</title>
<ellipse fill="none" stroke="black" cx="87.74" cy="-162" rx="62.29" ry="18"/>
<text text-anchor="middle" x="87.74" y="-158.3" font-family="Times,serif" font-size="14.00">:navigation</text>
</g>
<!-- :feature:settings -->
<g id="node2" class="node">
<title>:feature:settings</title>
<ellipse fill="none" stroke="black" cx="87.74" cy="-90" rx="87.99" ry="18"/>
<text text-anchor="middle" x="87.74" y="-86.3" font-family="Times,serif" font-size="14.00">:feature:settings</text>
</g>
<!-- :navigation&#45;&gt;:feature:settings -->
<g id="edge1" class="edge">
<title>:navigation&#45;&gt;:feature:settings</title>
<path fill="none" stroke="black" d="M87.74,-143.7C87.74,-135.98 87.74,-126.71 87.74,-118.11"/>
<polygon fill="black" stroke="black" points="91.24,-118.1 87.74,-108.1 84.24,-118.1 91.24,-118.1"/>
</g>
<!-- :core:domain -->
<g id="node3" class="node">
<title>:core:domain</title>
<ellipse fill="none" stroke="black" cx="87.74" cy="-18" rx="70.69" ry="18"/>
<text text-anchor="middle" x="87.74" y="-14.3" font-family="Times,serif" font-size="14.00">:core:domain</text>
</g>
<!-- :feature:settings&#45;&gt;:core:domain -->
<g id="edge2" class="edge">
<title>:feature:settings&#45;&gt;:core:domain</title>
<path fill="none" stroke="black" d="M87.74,-71.7C87.74,-63.98 87.74,-54.71 87.74,-46.11"/>
<polygon fill="black" stroke="black" points="91.24,-46.1 87.74,-36.1 84.24,-46.1 91.24,-46.1"/>
</g>
</g>
</svg>
