<?xml version="1.0" encoding="UTF-8" standalone="no"?>
<!DOCTYPE svg PUBLIC "-//W3C//DTD SVG 1.1//EN"
 "http://www.w3.org/Graphics/SVG/1.1/DTD/svg11.dtd">
<!-- Generated by graphviz version 14.1.5 (20260411.2331)
 -->
<!-- Title: G Pages: 1 -->
<svg width="818pt" height="260pt"
 viewBox="0.00 0.00 818.00 260.00" xmlns="http://www.w3.org/2000/svg" xmlns:xlink="http://www.w3.org/1999/xlink">
<g id="graph0" class="graph" transform="scale(1 1) rotate(0) translate(4 256)">
<title>G</title>
<polygon fill="white" stroke="none" points="-4,4 -4,-256 814.16,-256 814.16,4 -4,4"/>
<!-- :app -->
<g id="node1" class="node">
<title>:app</title>
<ellipse fill="none" stroke="black" cx="98.89" cy="-234" rx="27" ry="18"/>
<text xml:space="preserve" text-anchor="middle" x="98.89" y="-228.95" font-family="Times,serif" font-size="14.00">:app</text>
</g>
<!-- :core:domain -->
<g id="node2" class="node">
<title>:core:domain</title>
<ellipse fill="none" stroke="black" cx="190.89" cy="-18" rx="60.05" ry="18"/>
<text xml:space="preserve" text-anchor="middle" x="190.89" y="-12.95" font-family="Times,serif" font-size="14.00">:core:domain</text>
</g>
<!-- :app&#45;&gt;:core:domain -->
<g id="edge1" class="edge">
<title>:app&#45;&gt;:core:domain</title>
<path fill="none" stroke="black" d="M81.57,-219.73C46.42,-191.2 -26.89,-122.51 10.89,-72 25.13,-52.96 81.65,-38.4 127.61,-29.41"/>
<polygon fill="black" stroke="black" points="128.07,-32.88 137.24,-27.58 126.77,-26 128.07,-32.88"/>
</g>
<!-- :core:data -->
<g id="node3" class="node">
<title>:core:data</title>
<ellipse fill="none" stroke="black" cx="66.89" cy="-90" rx="47.26" ry="18"/>
<text xml:space="preserve" text-anchor="middle" x="66.89" y="-84.95" font-family="Times,serif" font-size="14.00">:core:data</text>
</g>
<!-- :app&#45;&gt;:core:data -->
<g id="edge2" class="edge">
<title>:app&#45;&gt;:core:data</title>
<path fill="none" stroke="black" d="M89.84,-216.82C84.56,-206.58 78.29,-192.89 74.89,-180 69.69,-160.25 67.73,-137.28 67.04,-119.63"/>
<polygon fill="black" stroke="black" points="70.55,-119.77 66.79,-109.87 63.55,-119.96 70.55,-119.77"/>
</g>
<!-- :core:service -->
<g id="node4" class="node">
<title>:core:service</title>
<ellipse fill="none" stroke="black" cx="141.89" cy="-162" rx="58" ry="18"/>
<text xml:space="preserve" text-anchor="middle" x="141.89" y="-156.95" font-family="Times,serif" font-size="14.00">:core:service</text>
</g>
<!-- :app&#45;&gt;:core:service -->
<g id="edge3" class="edge">
<title>:app&#45;&gt;:core:service</title>
<path fill="none" stroke="red" stroke-width="2" d="M108.87,-216.76C113.77,-208.78 119.81,-198.95 125.37,-189.89"/>
<polygon fill="red" stroke="red" stroke-width="2" points="127.54,-193.06 129.79,-182.7 121.57,-189.39 127.54,-193.06"/>
</g>
<!-- :navigation -->
<g id="node5" class="node">
<title>:navigation</title>
<ellipse fill="none" stroke="black" cx="410.89" cy="-162" rx="52.38" ry="18"/>
<text xml:space="preserve" text-anchor="middle" x="410.89" y="-156.95" font-family="Times,serif" font-size="14.00">:navigation</text>
</g>
<!-- :app&#45;&gt;:navigation -->
<g id="edge4" class="edge">
<title>:app&#45;&gt;:navigation</title>
<path fill="none" stroke="black" d="M124.42,-227.27C175.02,-215.92 288.98,-190.35 356.93,-175.11"/>
<polygon fill="black" stroke="black" points="357.36,-178.6 366.35,-172.99 355.83,-171.77 357.36,-178.6"/>
</g>
<!-- :core:data&#45;&gt;:core:domain -->
<g id="edge5" class="edge">
<title>:core:data&#45;&gt;:core:domain</title>
<path fill="none" stroke="red" stroke-width="2" d="M92.59,-74.5C110.22,-64.54 133.92,-51.16 153.62,-40.04"/>
<polygon fill="red" stroke="red" stroke-width="2" points="153.89,-43.91 160.88,-35.94 150.45,-37.81 153.89,-43.91"/>
</g>
<!-- :core:service&#45;&gt;:core:domain -->
<g id="edge6" class="edge">
<title>:core:service&#45;&gt;:core:domain</title>
<path fill="none" stroke="black" d="M143.98,-143.83C146.55,-125.58 151.75,-96.08 160.89,-72 164.27,-63.1 168.98,-53.91 173.67,-45.73"/>
<polygon fill="black" stroke="black" points="176.58,-47.69 178.72,-37.31 170.57,-44.09 176.58,-47.69"/>
</g>
<!-- :core:service&#45;&gt;:core:data -->
<g id="edge7" class="edge">
<title>:core:service&#45;&gt;:core:data</title>
<path fill="none" stroke="red" stroke-width="2" d="M124.12,-144.41C114.71,-135.63 102.99,-124.69 92.6,-115"/>
<polygon fill="red" stroke="red" stroke-width="2" points="96.19,-113.56 86.49,-109.29 91.42,-118.68 96.19,-113.56"/>
</g>
<!-- :feature:settings -->
<g id="node6" class="node">
<title>:feature:settings</title>
<ellipse fill="none" stroke="black" cx="239.89" cy="-90" rx="69.78" ry="18"/>
<text xml:space="preserve" text-anchor="middle" x="239.89" y="-84.95" font-family="Times,serif" font-size="14.00">:feature:settings</text>
</g>
<!-- :navigation&#45;&gt;:feature:settings -->
<g id="edge8" class="edge">
<title>:navigation&#45;&gt;:feature:settings</title>
<path fill="none" stroke="black" d="M378.33,-147.67C352.26,-137 315.38,-121.9 286.24,-109.97"/>
<polygon fill="black" stroke="black" points="287.87,-106.86 277.29,-106.31 285.21,-113.33 287.87,-106.86"/>
</g>
<!-- :feature:onboarding -->
<g id="node7" class="node">
<title>:feature:onboarding</title>
<ellipse fill="none" stroke="black" cx="410.89" cy="-90" rx="83.6" ry="18"/>
<text xml:space="preserve" text-anchor="middle" x="410.89" y="-84.95" font-family="Times,serif" font-size="14.00">:feature:onboarding</text>
</g>
<!-- :navigation&#45;&gt;:feature:onboarding -->
<g id="edge9" class="edge">
<title>:navigation&#45;&gt;:feature:onboarding</title>
<path fill="none" stroke="black" d="M410.89,-143.7C410.89,-136.41 410.89,-127.73 410.89,-119.54"/>
<polygon fill="black" stroke="black" points="414.39,-119.62 410.89,-109.62 407.39,-119.62 414.39,-119.62"/>
</g>
<!-- :feature:licenses -->
<g id="node8" class="node">
<title>:feature:licenses</title>
<ellipse fill="none" stroke="black" cx="582.89" cy="-90" rx="70.8" ry="18"/>
<text xml:space="preserve" text-anchor="middle" x="582.89" y="-84.95" font-family="Times,serif" font-size="14.00">:feature:licenses</text>
</g>
<!-- :navigation&#45;&gt;:feature:licenses -->
<g id="edge10" class="edge">
<title>:navigation&#45;&gt;:feature:licenses</title>
<path fill="none" stroke="black" d="M443.65,-147.67C469.78,-137.03 506.72,-122 535.99,-110.09"/>
<polygon fill="black" stroke="black" points="537.04,-113.44 544.98,-106.43 534.4,-106.96 537.04,-113.44"/>
</g>
<!-- :feature:devices -->
<g id="node9" class="node">
<title>:feature:devices</title>
<ellipse fill="none" stroke="black" cx="740.89" cy="-90" rx="69.26" ry="18"/>
<text xml:space="preserve" text-anchor="middle" x="740.89" y="-84.95" font-family="Times,serif" font-size="14.00">:feature:devices</text>
</g>
<!-- :navigation&#45;&gt;:feature:devices -->
<g id="edge11" class="edge">
<title>:navigation&#45;&gt;:feature:devices</title>
<path fill="none" stroke="black" d="M454.62,-151.9C504.89,-141.42 589.89,-123.63 662.89,-108 667.83,-106.94 672.94,-105.84 678.07,-104.73"/>
<polygon fill="black" stroke="black" points="678.79,-108.16 687.82,-102.62 677.3,-101.32 678.79,-108.16"/>
</g>
<!-- :feature:settings&#45;&gt;:core:domain -->
<g id="edge12" class="edge">
<title>:feature:settings&#45;&gt;:core:domain</title>
<path fill="none" stroke="black" d="M228.03,-72.05C222.37,-63.97 215.48,-54.12 209.17,-45.11"/>
<polygon fill="black" stroke="black" points="212.11,-43.21 203.51,-37.03 206.38,-47.23 212.11,-43.21"/>
</g>
<!-- :feature:onboarding&#45;&gt;:core:domain -->
<g id="edge13" class="edge">
<title>:feature:onboarding&#45;&gt;:core:domain</title>
<path fill="none" stroke="black" d="M365.31,-74.5C329.22,-63.01 278.86,-46.99 241.53,-35.11"/>
<polygon fill="black" stroke="black" points="242.91,-31.88 232.32,-32.18 240.79,-38.55 242.91,-31.88"/>
</g>
<!-- :feature:devices&#45;&gt;:core:domain -->
<g id="edge14" class="edge">
<title>:feature:devices&#45;&gt;:core:domain</title>
<path fill="none" stroke="black" d="M690.69,-77.26C681.47,-75.34 671.92,-73.49 662.89,-72 520.49,-48.55 352.19,-32.39 259.96,-24.52"/>
<polygon fill="black" stroke="black" points="260.32,-21.03 250.06,-23.68 259.73,-28.01 260.32,-21.03"/>
</g>
</g>
</svg>
