<?xml version="1.0" encoding="UTF-8" standalone="no"?>
<!DOCTYPE svg PUBLIC "-//W3C//DTD SVG 1.1//EN"
 "http://www.w3.org/Graphics/SVG/1.1/DTD/svg11.dtd">
<!-- Generated by graphviz version 2.43.0 (0)
 -->
<!-- Title: G Pages: 1 -->
<svg width="977pt" height="260pt"
 viewBox="0.00 0.00 977.28 260.00" xmlns="http://www.w3.org/2000/svg" xmlns:xlink="http://www.w3.org/1999/xlink">
<g id="graph0" class="graph" transform="scale(1 1) rotate(0) translate(4 256)">
<title>G</title>
<polygon fill="white" stroke="transparent" points="-4,4 -4,-256 973.28,-256 973.28,4 -4,4"/>
<!-- :app -->
<g id="node1" class="node">
<title>:app</title>
<ellipse fill="none" stroke="black" cx="113.14" cy="-234" rx="30.59" ry="18"/>
<text text-anchor="middle" x="113.14" y="-230.3" font-family="Times,serif" font-size="14.00">:app</text>
</g>
<!-- :core:domain -->
<g id="node2" class="node">
<title>:core:domain</title>
<ellipse fill="none" stroke="black" cx="220.14" cy="-18" rx="70.69" ry="18"/>
<text text-anchor="middle" x="220.14" y="-14.3" font-family="Times,serif" font-size="14.00">:core:domain</text>
</g>
<!-- :app&#45;&gt;:core:domain -->
<g id="edge1" class="edge">
<title>:app&#45;&gt;:core:domain</title>
<path fill="none" stroke="black" d="M93.61,-219.91C53.92,-191.74 -29.09,-123.71 11.14,-72 27.96,-50.39 93.82,-36.17 147.18,-27.95"/>
<polygon fill="black" stroke="black" points="147.95,-31.37 157.32,-26.43 146.92,-24.45 147.95,-31.37"/>
</g>
<!-- :core:data -->
<g id="node3" class="node">
<title>:core:data</title>
<ellipse fill="none" stroke="black" cx="77.14" cy="-90" rx="57.39" ry="18"/>
<text text-anchor="middle" x="77.14" y="-86.3" font-family="Times,serif" font-size="14.00">:core:data</text>
</g>
<!-- :app&#45;&gt;:core:data -->
<g id="edge2" class="edge">
<title>:app&#45;&gt;:core:data</title>
<path fill="none" stroke="black" d="M101.66,-217.15C95,-207.04 87.14,-193.37 83.14,-180 77.11,-159.88 75.78,-136.1 75.87,-118.18"/>
<polygon fill="black" stroke="black" points="79.37,-118.2 76.07,-108.13 72.37,-118.06 79.37,-118.2"/>
</g>
<!-- :core:service -->
<g id="node4" class="node">
<title>:core:service</title>
<ellipse fill="none" stroke="black" cx="162.14" cy="-162" rx="69.59" ry="18"/>
<text text-anchor="middle" x="162.14" y="-158.3" font-family="Times,serif" font-size="14.00">:core:service</text>
</g>
<!-- :app&#45;&gt;:core:service -->
<g id="edge3" class="edge">
<title>:app&#45;&gt;:core:service</title>
<path fill="none" stroke="red" stroke-width="2" d="M124.26,-217.12C130.22,-208.59 137.72,-197.89 144.46,-188.25"/>
<polygon fill="red" stroke="red" stroke-width="2" points="147.51,-190 150.38,-179.8 141.78,-185.98 147.51,-190"/>
</g>
<!-- :navigation -->
<g id="node5" class="node">
<title>:navigation</title>
<ellipse fill="none" stroke="black" cx="486.14" cy="-162" rx="62.29" ry="18"/>
<text text-anchor="middle" x="486.14" y="-158.3" font-family="Times,serif" font-size="14.00">:navigation</text>
</g>
<!-- :app&#45;&gt;:navigation -->
<g id="edge4" class="edge">
<title>:app&#45;&gt;:navigation</title>
<path fill="none" stroke="black" d="M141.79,-227.62C202.15,-216.29 343.57,-189.76 425.16,-174.44"/>
<polygon fill="black" stroke="black" points="426.11,-177.83 435.29,-172.54 424.81,-170.95 426.11,-177.83"/>
</g>
<!-- :core:data&#45;&gt;:core:domain -->
<g id="edge5" class="edge">
<title>:core:data&#45;&gt;:core:domain</title>
<path fill="none" stroke="red" stroke-width="2" d="M106.77,-74.5C127.91,-64.15 156.58,-50.11 179.81,-38.74"/>
<polygon fill="red" stroke="red" stroke-width="2" points="181.62,-41.75 189.06,-34.21 178.54,-35.46 181.62,-41.75"/>
</g>
<!-- :core:service&#45;&gt;:core:domain -->
<g id="edge6" class="edge">
<title>:core:service&#45;&gt;:core:domain</title>
<path fill="none" stroke="black" d="M163.62,-143.94C165.71,-125.51 170.52,-95.63 181.14,-72 185.56,-62.15 192.04,-52.35 198.44,-43.91"/>
<polygon fill="black" stroke="black" points="201.27,-45.97 204.75,-35.96 195.79,-41.62 201.27,-45.97"/>
</g>
<!-- :core:service&#45;&gt;:core:data -->
<g id="edge7" class="edge">
<title>:core:service&#45;&gt;:core:data</title>
<path fill="none" stroke="red" stroke-width="2" d="M141.99,-144.41C130.83,-135.21 116.78,-123.64 104.61,-113.63"/>
<polygon fill="red" stroke="red" stroke-width="2" points="106.5,-110.64 96.55,-106.99 102.05,-116.05 106.5,-110.64"/>
</g>
<!-- :feature:settings -->
<g id="node6" class="node">
<title>:feature:settings</title>
<ellipse fill="none" stroke="black" cx="278.14" cy="-90" rx="87.99" ry="18"/>
<text text-anchor="middle" x="278.14" y="-86.3" font-family="Times,serif" font-size="14.00">:feature:settings</text>
</g>
<!-- :navigation&#45;&gt;:feature:settings -->
<g id="edge8" class="edge">
<title>:navigation&#45;&gt;:feature:settings</title>
<path fill="none" stroke="black" d="M447.01,-147.83C414.42,-136.86 367.67,-121.13 331.62,-109"/>
<polygon fill="black" stroke="black" points="332.35,-105.55 321.76,-105.68 330.12,-112.19 332.35,-105.55"/>
</g>
<!-- :feature:onboarding -->
<g id="node7" class="node">
<title>:feature:onboarding</title>
<ellipse fill="none" stroke="black" cx="486.14" cy="-90" rx="102.88" ry="18"/>
<text text-anchor="middle" x="486.14" y="-86.3" font-family="Times,serif" font-size="14.00">:feature:onboarding</text>
</g>
<!-- :navigation&#45;&gt;:feature:onboarding -->
<g id="edge9" class="edge">
<title>:navigation&#45;&gt;:feature:onboarding</title>
<path fill="none" stroke="black" d="M486.14,-143.7C486.14,-135.98 486.14,-126.71 486.14,-118.11"/>
<polygon fill="black" stroke="black" points="489.64,-118.1 486.14,-108.1 482.64,-118.1 489.64,-118.1"/>
</g>
<!-- :feature:licenses -->
<g id="node8" class="node">
<title>:feature:licenses</title>
<ellipse fill="none" stroke="black" cx="694.14" cy="-90" rx="87.18" ry="18"/>
<text text-anchor="middle" x="694.14" y="-86.3" font-family="Times,serif" font-size="14.00">:feature:licenses</text>
</g>
<!-- :navigation&#45;&gt;:feature:licenses -->
<g id="edge10" class="edge">
<title>:navigation&#45;&gt;:feature:licenses</title>
<path fill="none" stroke="black" d="M525.26,-147.83C557.85,-136.86 604.6,-121.13 640.65,-109"/>
<polygon fill="black" stroke="black" points="642.16,-112.19 650.52,-105.68 639.92,-105.55 642.16,-112.19"/>
</g>
<!-- :feature:devices -->
<g id="node9" class="node">
<title>:feature:devices</title>
<ellipse fill="none" stroke="black" cx="884.14" cy="-90" rx="85.29" ry="18"/>
<text text-anchor="middle" x="884.14" y="-86.3" font-family="Times,serif" font-size="14.00">:feature:devices</text>
</g>
<!-- :navigation&#45;&gt;:feature:devices -->
<g id="edge11" class="edge">
<title>:navigation&#45;&gt;:feature:devices</title>
<path fill="none" stroke="black" d="M538.33,-152C598.91,-141.54 701.78,-123.69 790.14,-108 797.21,-106.74 804.58,-105.43 811.94,-104.1"/>
<polygon fill="black" stroke="black" points="812.73,-107.52 821.96,-102.3 811.49,-100.63 812.73,-107.52"/>
</g>
<!-- :feature:settings&#45;&gt;:core:domain -->
<g id="edge12" class="edge">
<title>:feature:settings&#45;&gt;:core:domain</title>
<path fill="none" stroke="black" d="M264.1,-72.05C257.04,-63.54 248.37,-53.07 240.59,-43.68"/>
<polygon fill="black" stroke="black" points="243.12,-41.26 234.05,-35.79 237.73,-45.72 243.12,-41.26"/>
</g>
<!-- :feature:onboarding&#45;&gt;:core:domain -->
<g id="edge13" class="edge">
<title>:feature:onboarding&#45;&gt;:core:domain</title>
<path fill="none" stroke="black" d="M431.67,-74.67C386.64,-62.82 322.89,-46.04 277.17,-34.01"/>
<polygon fill="black" stroke="black" points="277.97,-30.6 267.41,-31.44 276.19,-37.37 277.97,-30.6"/>
</g>
<!-- :feature:devices&#45;&gt;:core:domain -->
<g id="edge14" class="edge">
<title>:feature:devices&#45;&gt;:core:domain</title>
<path fill="none" stroke="black" d="M823.58,-77.26C812.48,-75.33 800.98,-73.48 790.14,-72 614.92,-48.05 407.89,-31.79 297.93,-24.1"/>
<polygon fill="black" stroke="black" points="298.13,-20.6 287.92,-23.4 297.65,-27.59 298.13,-20.6"/>
</g>
</g>
</svg>
