<?xml version="1.0" encoding="UTF-8" standalone="no"?>
<!DOCTYPE svg PUBLIC "-//W3C//DTD SVG 1.1//EN"
 "http://www.w3.org/Graphics/SVG/1.1/DTD/svg11.dtd">
<!-- Generated by graphviz version 14.1.5 (20260411.2331)
 -->
<!-- Title: G Pages: 1 -->
<svg width="648pt" height="188pt"
 viewBox="0.00 0.00 648.00 188.00" xmlns="http://www.w3.org/2000/svg" xmlns:xlink="http://www.w3.org/1999/xlink">
<g id="graph0" class="graph" transform="scale(1 1) rotate(0) translate(4 184)">
<title>G</title>
<polygon fill="white" stroke="none" points="-4,4 -4,-184 644.04,-184 644.04,4 -4,4"/>
<!-- :app -->
<g id="node1" class="node">
<title>:app</title>
<ellipse fill="none" stroke="black" cx="326.78" cy="-162" rx="27" ry="18"/>
<text xml:space="preserve" text-anchor="middle" x="326.78" y="-156.95" font-family="Times,serif" font-size="14.00">:app</text>
</g>
<!-- :navigation -->
<g id="node2" class="node">
<title>:navigation</title>
<ellipse fill="none" stroke="black" cx="326.78" cy="-90" rx="52.38" ry="18"/>
<text xml:space="preserve" text-anchor="middle" x="326.78" y="-84.95" font-family="Times,serif" font-size="14.00">:navigation</text>
</g>
<!-- :app&#45;&gt;:navigation -->
<g id="edge1" class="edge">
<title>:app&#45;&gt;:navigation</title>
<path fill="none" stroke="black" d="M326.78,-143.7C326.78,-136.41 326.78,-127.73 326.78,-119.54"/>
<polygon fill="black" stroke="black" points="330.28,-119.62 326.78,-109.62 323.28,-119.62 330.28,-119.62"/>
</g>
<!-- :feature:settings -->
<g id="node3" class="node">
<title>:feature:settings</title>
<ellipse fill="none" stroke="black" cx="69.78" cy="-18" rx="69.78" ry="18"/>
<text xml:space="preserve" text-anchor="middle" x="69.78" y="-12.95" font-family="Times,serif" font-size="14.00">:feature:settings</text>
</g>
<!-- :navigation&#45;&gt;:feature:settings -->
<g id="edge2" class="edge">
<title>:navigation&#45;&gt;:feature:settings</title>
<path fill="none" stroke="black" d="M286.62,-78.06C243.92,-66.43 176,-47.93 127.56,-34.74"/>
<polygon fill="black" stroke="black" points="128.64,-31.41 118.08,-32.16 126.8,-38.16 128.64,-31.41"/>
</g>
<!-- :feature:onboarding -->
<g id="node4" class="node">
<title>:feature:onboarding</title>
<ellipse fill="none" stroke="black" cx="240.78" cy="-18" rx="83.6" ry="18"/>
<text xml:space="preserve" text-anchor="middle" x="240.78" y="-12.95" font-family="Times,serif" font-size="14.00">:feature:onboarding</text>
</g>
<!-- :navigation&#45;&gt;:feature:onboarding -->
<g id="edge3" class="edge">
<title>:navigation&#45;&gt;:feature:onboarding</title>
<path fill="none" stroke="black" d="M307.26,-73.12C296.26,-64.16 282.29,-52.79 270,-42.79"/>
<polygon fill="black" stroke="black" points="272.55,-40.35 262.59,-36.75 268.13,-45.78 272.55,-40.35"/>
</g>
<!-- :feature:licenses -->
<g id="node5" class="node">
<title>:feature:licenses</title>
<ellipse fill="none" stroke="black" cx="412.78" cy="-18" rx="70.8" ry="18"/>
<text xml:space="preserve" text-anchor="middle" x="412.78" y="-12.95" font-family="Times,serif" font-size="14.00">:feature:licenses</text>
</g>
<!-- :navigation&#45;&gt;:feature:licenses -->
<g id="edge4" class="edge">
<title>:navigation&#45;&gt;:feature:licenses</title>
<path fill="none" stroke="black" d="M346.29,-73.12C357.38,-64.09 371.47,-52.62 383.82,-42.57"/>
<polygon fill="black" stroke="black" points="385.72,-45.53 391.27,-36.51 381.3,-40.11 385.72,-45.53"/>
</g>
<!-- :feature:devices -->
<g id="node6" class="node">
<title>:feature:devices</title>
<ellipse fill="none" stroke="black" cx="570.78" cy="-18" rx="69.26" ry="18"/>
<text xml:space="preserve" text-anchor="middle" x="570.78" y="-12.95" font-family="Times,serif" font-size="14.00">:feature:devices</text>
</g>
<!-- :navigation&#45;&gt;:feature:devices -->
<g id="edge5" class="edge">
<title>:navigation&#45;&gt;:feature:devices</title>
<path fill="none" stroke="black" d="M365.98,-77.75C406.18,-66.22 469.08,-48.17 514.57,-35.12"/>
<polygon fill="black" stroke="black" points="515.35,-38.54 523.99,-32.42 513.41,-31.82 515.35,-38.54"/>
</g>
</g>
</svg>
