<?xml version="1.0" encoding="UTF-8" standalone="no"?>
<!DOCTYPE svg PUBLIC "-//W3C//DTD SVG 1.1//EN"
 "http://www.w3.org/Graphics/SVG/1.1/DTD/svg11.dtd">
<!-- Generated by graphviz version 2.43.0 (0)
 -->
<!-- Title: G Pages: 1 -->
<svg width="787pt" height="188pt"
 viewBox="0.00 0.00 786.88 188.00" xmlns="http://www.w3.org/2000/svg" xmlns:xlink="http://www.w3.org/1999/xlink">
<g id="graph0" class="graph" transform="scale(1 1) rotate(0) translate(4 184)">
<title>G</title>
<polygon fill="white" stroke="transparent" points="-4,4 -4,-184 782.88,-184 782.88,4 -4,4"/>
<!-- :app -->
<g id="node1" class="node">
<title>:app</title>
<ellipse fill="none" stroke="black" cx="399.74" cy="-162" rx="30.59" ry="18"/>
<text text-anchor="middle" x="399.74" y="-158.3" font-family="Times,serif" font-size="14.00">:app</text>
</g>
<!-- :navigation -->
<g id="node2" class="node">
<title>:navigation</title>
<ellipse fill="none" stroke="black" cx="399.74" cy="-90" rx="62.29" ry="18"/>
<text text-anchor="middle" x="399.74" y="-86.3" font-family="Times,serif" font-size="14.00">:navigation</text>
</g>
<!-- :app&#45;&gt;:navigation -->
<g id="edge1" class="edge">
<title>:app&#45;&gt;:navigation</title>
<path fill="none" stroke="black" d="M399.74,-143.7C399.74,-135.98 399.74,-126.71 399.74,-118.11"/>
<polygon fill="black" stroke="black" points="403.24,-118.1 399.74,-108.1 396.24,-118.1 403.24,-118.1"/>
</g>
<!-- :feature:settings -->
<g id="node3" class="node">
<title>:feature:settings</title>
<ellipse fill="none" stroke="black" cx="87.74" cy="-18" rx="87.99" ry="18"/>
<text text-anchor="middle" x="87.74" y="-14.3" font-family="Times,serif" font-size="14.00">:feature:settings</text>
</g>
<!-- :navigation&#45;&gt;:feature:settings -->
<g id="edge2" class="edge">
<title>:navigation&#45;&gt;:feature:settings</title>
<path fill="none" stroke="black" d="M352.02,-78.29C299.33,-66.47 214.13,-47.36 154.76,-34.04"/>
<polygon fill="black" stroke="black" points="155.25,-30.56 144.73,-31.79 153.72,-37.39 155.25,-30.56"/>
</g>
<!-- :feature:onboarding -->
<g id="node4" class="node">
<title>:feature:onboarding</title>
<ellipse fill="none" stroke="black" cx="295.74" cy="-18" rx="102.88" ry="18"/>
<text text-anchor="middle" x="295.74" y="-14.3" font-family="Times,serif" font-size="14.00">:feature:onboarding</text>
</g>
<!-- :navigation&#45;&gt;:feature:onboarding -->
<g id="edge3" class="edge">
<title>:navigation&#45;&gt;:feature:onboarding</title>
<path fill="none" stroke="black" d="M376.4,-73.29C362.36,-63.84 344.25,-51.65 328.75,-41.22"/>
<polygon fill="black" stroke="black" points="330.7,-38.31 320.45,-35.63 326.8,-44.12 330.7,-38.31"/>
</g>
<!-- :feature:licenses -->
<g id="node5" class="node">
<title>:feature:licenses</title>
<ellipse fill="none" stroke="black" cx="503.74" cy="-18" rx="87.18" ry="18"/>
<text text-anchor="middle" x="503.74" y="-14.3" font-family="Times,serif" font-size="14.00">:feature:licenses</text>
</g>
<!-- :navigation&#45;&gt;:feature:licenses -->
<g id="edge4" class="edge">
<title>:navigation&#45;&gt;:feature:licenses</title>
<path fill="none" stroke="black" d="M423.08,-73.29C437.23,-63.77 455.5,-51.47 471.07,-40.99"/>
<polygon fill="black" stroke="black" points="473.05,-43.87 479.4,-35.39 469.15,-38.07 473.05,-43.87"/>
</g>
<!-- :feature:devices -->
<g id="node6" class="node">
<title>:feature:devices</title>
<ellipse fill="none" stroke="black" cx="693.74" cy="-18" rx="85.29" ry="18"/>
<text text-anchor="middle" x="693.74" y="-14.3" font-family="Times,serif" font-size="14.00">:feature:devices</text>
</g>
<!-- :navigation&#45;&gt;:feature:devices -->
<g id="edge5" class="edge">
<title>:navigation&#45;&gt;:feature:devices</title>
<path fill="none" stroke="black" d="M446.33,-77.91C495.71,-66.15 574.07,-47.49 629.34,-34.33"/>
<polygon fill="black" stroke="black" points="630.47,-37.66 639.38,-31.94 628.85,-30.85 630.47,-37.66"/>
</g>
</g>
</svg>
