<?xml version="1.0" encoding="UTF-8" standalone="no"?>
<!DOCTYPE svg PUBLIC "-//W3C//DTD SVG 1.1//EN"
 "http://www.w3.org/Graphics/SVG/1.1/DTD/svg11.dtd">
<!-- Generated by graphviz version 2.43.0 (0)
 -->
<!-- Title: G Pages: 1 -->
<svg width="969pt" height="188pt"
 viewBox="0.00 0.00 968.63 188.00" xmlns="http://www.w3.org/2000/svg" xmlns:xlink="http://www.w3.org/1999/xlink">
<g id="graph0" class="graph" transform="scale(1 1) rotate(0) translate(4 184)">
<title>G</title>
<polygon fill="white" stroke="transparent" points="-4,4 -4,-184 964.63,-184 964.63,4 -4,4"/>
<!-- :app -->
<g id="node1" class="node">
<title>:app</title>
<ellipse fill="none" stroke="black" cx="503.74" cy="-162" rx="30.59" ry="18"/>
<text text-anchor="middle" x="503.74" y="-158.3" font-family="Times,serif" font-size="14.00">:app</text>
</g>
<!-- :navigation -->
<g id="node2" class="node">
<title>:navigation</title>
<ellipse fill="none" stroke="black" cx="503.74" cy="-90" rx="62.29" ry="18"/>
<text text-anchor="middle" x="503.74" y="-86.3" font-family="Times,serif" font-size="14.00">:navigation</text>
</g>
<!-- :app&#45;&gt;:navigation -->
<g id="edge1" class="edge">
<title>:app&#45;&gt;:navigation</title>
<path fill="none" stroke="red" stroke-width="2" d="M503.74,-143.7C503.74,-135.98 503.74,-126.71 503.74,-118.11"/>
<polygon fill="red" stroke="red" stroke-width="2" points="507.24,-118.1 503.74,-108.1 500.24,-118.1 507.24,-118.1"/>
</g>
<!-- :feature:settings -->
<g id="node3" class="node">
<title>:feature:settings</title>
<ellipse fill="none" stroke="black" cx="87.74" cy="-18" rx="87.99" ry="18"/>
<text text-anchor="middle" x="87.74" y="-14.3" font-family="Times,serif" font-size="14.00">:feature:settings</text>
</g>
<!-- :navigation&#45;&gt;:feature:settings -->
<g id="edge2" class="edge">
<title>:navigation&#45;&gt;:feature:settings</title>
<path fill="none" stroke="red" stroke-width="2" d="M450.77,-80.41C387.28,-70.08 277.68,-52.1 183.74,-36 176.49,-34.76 168.94,-33.45 161.39,-32.13"/>
<polygon fill="red" stroke="red" stroke-width="2" points="161.95,-28.67 151.5,-30.39 160.74,-35.57 161.95,-28.67"/>
</g>
<!-- :feature:onboarding -->
<g id="node4" class="node">
<title>:feature:onboarding</title>
<ellipse fill="none" stroke="black" cx="295.74" cy="-18" rx="102.88" ry="18"/>
<text text-anchor="middle" x="295.74" y="-14.3" font-family="Times,serif" font-size="14.00">:feature:onboarding</text>
</g>
<!-- :navigation&#45;&gt;:feature:onboarding -->
<g id="edge3" class="edge">
<title>:navigation&#45;&gt;:feature:onboarding</title>
<path fill="none" stroke="black" d="M464.62,-75.83C432.46,-65.01 386.51,-49.55 350.66,-37.48"/>
<polygon fill="black" stroke="black" points="351.43,-34.05 340.84,-34.18 349.2,-40.68 351.43,-34.05"/>
</g>
<!-- :feature:licenses -->
<g id="node5" class="node">
<title>:feature:licenses</title>
<ellipse fill="none" stroke="black" cx="503.74" cy="-18" rx="87.18" ry="18"/>
<text text-anchor="middle" x="503.74" y="-14.3" font-family="Times,serif" font-size="14.00">:feature:licenses</text>
</g>
<!-- :navigation&#45;&gt;:feature:licenses -->
<g id="edge4" class="edge">
<title>:navigation&#45;&gt;:feature:licenses</title>
<path fill="none" stroke="black" d="M503.74,-71.7C503.74,-63.98 503.74,-54.71 503.74,-46.11"/>
<polygon fill="black" stroke="black" points="507.24,-46.1 503.74,-36.1 500.24,-46.1 507.24,-46.1"/>
</g>
<!-- :feature:devices -->
<g id="node6" class="node">
<title>:feature:devices</title>
<ellipse fill="none" stroke="black" cx="693.74" cy="-18" rx="85.29" ry="18"/>
<text text-anchor="middle" x="693.74" y="-14.3" font-family="Times,serif" font-size="14.00">:feature:devices</text>
</g>
<!-- :navigation&#45;&gt;:feature:devices -->
<g id="edge5" class="edge">
<title>:navigation&#45;&gt;:feature:devices</title>
<path fill="none" stroke="black" d="M540.83,-75.34C570.09,-64.56 611.21,-49.41 643.44,-37.53"/>
<polygon fill="black" stroke="black" points="644.96,-40.7 653.13,-33.96 642.54,-34.13 644.96,-40.7"/>
</g>
<!-- :feature:widget -->
<g id="node7" class="node">
<title>:feature:widget</title>
<ellipse fill="none" stroke="black" cx="878.74" cy="-18" rx="81.79" ry="18"/>
<text text-anchor="middle" x="878.74" y="-14.3" font-family="Times,serif" font-size="14.00">:feature:widget</text>
</g>
<!-- :navigation&#45;&gt;:feature:widget -->
<g id="edge6" class="edge">
<title>:navigation&#45;&gt;:feature:widget</title>
<path fill="none" stroke="black" d="M554.53,-79.52C611.35,-68.92 706.14,-51.24 787.74,-36 794.43,-34.75 801.39,-33.45 808.36,-32.15"/>
<polygon fill="black" stroke="black" points="809.35,-35.53 818.53,-30.25 808.06,-28.64 809.35,-35.53"/>
</g>
</g>
</svg>
